STARTFONT 2.1
COMMENT  
COMMENT  WARNING:  This bdf file was generated from an X server using
COMMENT  xbdfdump.  The resulting font is subject to the same copyright,
COMMENT  license, and trademark restrictions as the original font.  The
COMMENT  author and distributors of xbdfdump disclaim all liability for
COMMENT  misuse of the program or its output.
COMMENT  
FONT -phaisarn-angsana-medium-r-normal--24-240-75-75-p-75-tis620-0
SIZE 24 75 75
FONTBOUNDINGBOX 62 66 -24 -20
STARTPROPERTIES 26
FOUNDRY "Phaisarn"
FAMILY_NAME "Angsana"
WEIGHT_NAME "medium"
SLANT "r"
SETWIDTH_NAME "normal"
ADD_STYLE_NAME ""
PIXEL_SIZE 24
POINT_SIZE 240
RESOLUTION_X 75
RESOLUTION_Y 75
SPACING "p"
AVERAGE_WIDTH 75
CHARSET_REGISTRY "tis620"
CHARSET_ENCODING "0"
COPYRIGHT "Angsana by Pt-TITech 1997"
RAW_PIXELSIZE 1000
RAW_POINTSIZE 723
RAW_ASCENT 736
RAW_DESCENT "RAW_FIGURE_WIDTH"
RAW_AVERAGE_WIDTH 2994
FACE_NAME "Angsana"
WEIGHT 10
X_HEIGHT 14
QUAD_WIDTH 20
FONT_ASCENT 50
FONT_DESCENT 10
ENDPROPERTIES
CHARS 219
STARTCHAR space
ENCODING 32
SWIDTH 320 0
DWIDTH 8 0
BBX 0 0 0 0
BITMAP
ENDCHAR
STARTCHAR exclam
ENCODING 33
SWIDTH 440 0
DWIDTH 11 0
BBX 4 22 4 0
BITMAP
60
f0
f0
f0
f0
f0
f0
60
60
60
60
60
60
60
60
20
00
00
00
60
f0
60
ENDCHAR
STARTCHAR quotedbl
ENCODING 34
SWIDTH 520 0
DWIDTH 13 0
BBX 9 9 2 13
BITMAP
e380
e380
e380
e380
e380
4180
4100
4100
4100
ENDCHAR
STARTCHAR numbersign
ENCODING 35
SWIDTH 640 0
DWIDTH 16 0
BBX 14 22 1 0
BITMAP
0608
0408
0418
0418
0c10
0810
0810
fffc
1820
1820
1020
1020
1060
1060
fffc
2040
2040
20c0
2080
6080
4080
4080
ENDCHAR
STARTCHAR dollar
ENCODING 36
SWIDTH 640 0
DWIDTH 16 0
BBX 12 25 2 -2
BITMAP
0400
0600
1fc0
64e0
6460
e420
e420
e400
7400
7c00
3c00
1e00
0f80
07c0
05e0
04f0
0470
8470
8470
c470
c4e0
f5c0
3f00
0400
0400
ENDCHAR
STARTCHAR percent
ENCODING 37
SWIDTH 1080 0
DWIDTH 27 0
BBX 25 23 1 -1
BITMAP
0e001800
33003000
73802000
61c04000
e1c0c000
e1c08000
e1c10000
e1c30000
61c20000
63840000
330c0000
0e081800
00186600
0030e700
0020c300
0061c380
0041c380
0081c380
0181c380
0100c380
0200e700
06006600
0c003c00
ENDCHAR
STARTCHAR ampersand
ENCODING 38
SWIDTH 1000 0
DWIDTH 25 0
BBX 23 22 1 0
BITMAP
007000
01cc00
030600
070600
070600
070e00
078c00
079800
03b0fc
03c070
03c060
0de060
18e040
30f0c0
707880
e03f00
e03e00
e01f02
f01f82
f837c4
7fc3fc
1f0070
ENDCHAR
STARTCHAR apostrophe
ENCODING 39
SWIDTH 240 0
DWIDTH 6 0
BBX 3 9 1 13
BITMAP
e0
e0
e0
e0
e0
40
40
40
40
ENDCHAR
STARTCHAR parenleft
ENCODING 40
SWIDTH 440 0
DWIDTH 11 0
BBX 9 29 1 -7
BITMAP
0080
0300
0600
0c00
1800
1800
3000
7000
7000
7000
6000
e000
e000
e000
e000
e000
e000
e000
6000
7000
7000
7000
3000
1800
1800
0c00
0600
0100
0080
ENDCHAR
STARTCHAR parenright
ENCODING 41
SWIDTH 440 0
DWIDTH 11 0
BBX 8 29 1 -7
BITMAP
80
40
20
30
18
08
0c
0e
0e
06
06
07
07
07
07
07
07
07
06
06
0e
0e
0c
0c
18
10
20
40
80
ENDCHAR
STARTCHAR asterisk
ENCODING 42
SWIDTH 640 0
DWIDTH 16 0
BBX 11 13 2 9
BITMAP
0400
0e00
0e00
c460
e4e0
3f80
0400
7f80
e4e0
c460
0e00
0e00
0400
ENDCHAR
STARTCHAR plus
ENCODING 43
SWIDTH 720 0
DWIDTH 18 0
BBX 16 17 1 2
BITMAP
0100
0100
0100
0100
0100
0100
0100
0100
ffff
0100
0100
0100
0100
0100
0100
0100
0100
ENDCHAR
STARTCHAR comma
ENCODING 44
SWIDTH 320 0
DWIDTH 8 0
BBX 4 8 2 -5
BITMAP
e0
f0
f0
10
10
20
40
80
ENDCHAR
STARTCHAR minus
ENCODING 45
SWIDTH 440 0
DWIDTH 11 0
BBX 8 2 1 6
BITMAP
ff
ff
ENDCHAR
STARTCHAR period
ENCODING 46
SWIDTH 320 0
DWIDTH 8 0
BBX 4 3 2 0
BITMAP
60
f0
60
ENDCHAR
STARTCHAR slash
ENCODING 47
SWIDTH 360 0
DWIDTH 9 0
BBX 8 22 0 0
BITMAP
01
01
03
02
02
06
04
04
08
08
08
10
10
10
20
20
60
40
40
c0
80
80
ENDCHAR
STARTCHAR 0
ENCODING 48
SWIDTH 640 0
DWIDTH 16 0
BBX 14 22 1 0
BITMAP
0380
1c60
3830
3030
7038
7038
6018
e01c
e01c
e01c
e01c
e01c
e01c
e01c
e01c
6038
7038
7038
3030
3870
1ce0
0780
ENDCHAR
STARTCHAR 1
ENCODING 49
SWIDTH 640 0
DWIDTH 16 0
BBX 7 22 4 0
BITMAP
18
38
f8
38
38
38
38
38
38
38
38
38
38
38
38
38
38
38
38
38
38
fe
ENDCHAR
STARTCHAR 2
ENCODING 50
SWIDTH 640 0
DWIDTH 16 0
BBX 15 22 0 0
BITMAP
0f80
1fe0
38f0
2078
4078
4038
0038
0030
0030
0030
0060
0060
00c0
0080
0100
0200
0600
0c00
0802
100c
3ff8
fff8
ENDCHAR
STARTCHAR 3
ENCODING 51
SWIDTH 640 0
DWIDTH 16 0
BBX 12 22 1 0
BITMAP
0f00
3fc0
23c0
41e0
40e0
00e0
00c0
00c0
0180
0380
0fc0
07e0
01e0
0070
0070
0030
0030
0030
0060
00e0
f180
7e00
ENDCHAR
STARTCHAR 4
ENCODING 52
SWIDTH 640 0
DWIDTH 16 0
BBX 15 22 0 0
BITMAP
0030
0070
00f0
00f0
0170
0370
0270
0470
0c70
0870
1070
3070
2070
4070
fffe
fffe
0070
0070
0070
0070
0070
0070
ENDCHAR
STARTCHAR 5
ENCODING 53
SWIDTH 640 0
DWIDTH 16 0
BBX 12 21 2 0
BITMAP
0ff0
0ff0
1fe0
1000
3000
2000
7e00
7f80
9fc0
03e0
00e0
0070
0070
0030
0030
0020
0020
0040
f180
ff00
3c00
ENDCHAR
STARTCHAR 6
ENCODING 54
SWIDTH 640 0
DWIDTH 16 0
BBX 14 22 1 0
BITMAP
003c
01c0
0300
0600
0c00
1c00
3800
3800
7000
77e0
f870
e038
e03c
e01c
e01c
e01c
601c
7018
7018
3830
1c60
0780
ENDCHAR
STARTCHAR 7
ENCODING 55
SWIDTH 640 0
DWIDTH 16 0
BBX 13 21 2 0
BITMAP
7ff8
7ff8
4018
8030
8030
0030
0060
0060
0060
00c0
00c0
0080
0180
0180
0100
0300
0300
0200
0600
0600
0c00
ENDCHAR
STARTCHAR 8
ENCODING 56
SWIDTH 640 0
DWIDTH 16 0
BBX 12 22 2 0
BITMAP
1f80
31c0
6060
c030
c030
c030
e060
70e0
3980
3f00
1f00
1f80
33e0
61e0
60f0
e030
e030
e030
e030
6060
30c0
1f80
ENDCHAR
STARTCHAR 9
ENCODING 57
SWIDTH 640 0
DWIDTH 16 0
BBX 14 22 1 0
BITMAP
0780
18e0
3070
6038
6038
e01c
e01c
e01c
e01c
f01c
701c
387c
3ff8
0f38
0038
0070
0060
00e0
0180
0300
1c00
f000
ENDCHAR
STARTCHAR colon
ENCODING 58
SWIDTH 360 0
DWIDTH 9 0
BBX 4 15 2 0
BITMAP
60
f0
60
00
00
00
00
00
00
00
00
00
60
f0
60
ENDCHAR
STARTCHAR semicolon
ENCODING 59
SWIDTH 360 0
DWIDTH 9 0
BBX 4 20 3 -5
BITMAP
e0
f0
e0
00
00
00
00
00
00
00
00
00
e0
f0
f0
10
10
20
40
80
ENDCHAR
STARTCHAR less
ENCODING 60
SWIDTH 720 0
DWIDTH 18 0
BBX 16 15 1 3
BITMAP
0001
0007
003c
00e0
0380
1e00
7000
c000
7000
1e00
0380
00e0
001c
0007
0001
ENDCHAR
STARTCHAR equal
ENCODING 61
SWIDTH 720 0
DWIDTH 18 0
BBX 16 7 1 7
BITMAP
ffff
0000
0000
0000
0000
0000
ffff
ENDCHAR
STARTCHAR greater
ENCODING 62
SWIDTH 720 0
DWIDTH 18 0
BBX 16 15 1 3
BITMAP
8000
e000
3800
0700
01c0
0078
000e
0003
000e
0038
01c0
0700
3c00
e000
8000
ENDCHAR
STARTCHAR question
ENCODING 63
SWIDTH 560 0
DWIDTH 14 0
BBX 11 22 2 0
BITMAP
3f00
6380
c1c0
c0e0
c0e0
c0e0
c0e0
00c0
01c0
0180
0100
0300
0200
0400
0400
0400
0400
0000
0000
0c00
1e00
0c00
ENDCHAR
STARTCHAR at
ENCODING 64
SWIDTH 1160 0
DWIDTH 29 0
BBX 26 29 2 -7
BITMAP
000fc000
00703000
01800800
06000400
0c000200
18000100
30000100
20073080
600cb080
4018e080
4030e080
c060e080
80e0e080
80c0c080
81c0c100
81c1c100
8381c100
83838200
83838200
83c58400
41f99840
40e1e0c0
60000080
20000100
10000200
0c000400
06000800
01c07000
003f8000
ENDCHAR
STARTCHAR A
ENCODING 65
SWIDTH 920 0
DWIDTH 23 0
BBX 23 22 0 0
BITMAP
001000
003000
003800
003800
007c00
005c00
00de00
008e00
018e00
010700
030700
020380
060380
0401c0
07ffc0
0801e0
0800e0
1800e0
100070
300070
70007c
fc01fe
ENDCHAR
STARTCHAR B
ENCODING 66
SWIDTH 840 0
DWIDTH 21 0
BBX 19 21 1 0
BITMAP
fff000
1c0f00
1c0380
1c0380
1c01c0
1c01c0
1c01c0
1c01c0
1c0380
1c0700
1ffe00
1c0f80
1c03c0
1c01e0
1c01e0
1c01e0
1c01e0
1c03c0
1c03c0
1c0780
fff800
ENDCHAR
STARTCHAR C
ENCODING 67
SWIDTH 840 0
DWIDTH 21 0
BBX 19 22 1 0
BITMAP
00fc20
0783e0
0e00e0
1c0060
380060
780020
780020
780000
f00000
f00000
f00000
f00000
f00000
f00000
780000
780000
380020
3c0020
1e00c0
0f8380
03fe00
00f800
ENDCHAR
STARTCHAR D
ENCODING 68
SWIDTH 920 0
DWIDTH 23 0
BBX 21 21 1 0
BITMAP
fff800
1c0f00
1c03c0
1c01e0
1c01e0
1c00f0
1c00f0
1c0078
1c0078
1c0078
1c0078
1c0078
1c0078
1c0070
1c00f0
1c00f0
1c01e0
1c01c0
1c0380
1c0f00
fff000
ENDCHAR
STARTCHAR E
ENCODING 69
SWIDTH 800 0
DWIDTH 20 0
BBX 18 21 1 0
BITMAP
ffff00
1c0300
1c0100
1c0100
1c0100
1c0000
1c0400
1c0400
1c0400
1ffc00
1c0400
1c0400
1c0400
1c0000
1c0000
1c0040
1c0080
1c0080
1c0180
1c0300
ffff00
ENDCHAR
STARTCHAR F
ENCODING 70
SWIDTH 720 0
DWIDTH 18 0
BBX 16 21 1 0
BITMAP
fffe
1c06
1c02
1c01
1c01
1c00
1c08
1c08
1c18
1ff8
1c18
1c08
1c08
1c00
1c00
1c00
1c00
1c00
1c00
3e00
ff80
ENDCHAR
STARTCHAR G
ENCODING 71
SWIDTH 920 0
DWIDTH 23 0
BBX 22 22 1 0
BITMAP
00fe20
03c1c0
0e00e0
1c0060
3c0060
380020
780020
700000
f00000
f00000
f003fc
f001f0
f000e0
f000e0
7800e0
7800e0
7800e0
3c00e0
1e00e0
0f00e0
03c1c0
007f00
ENDCHAR
STARTCHAR H
ENCODING 72
SWIDTH 920 0
DWIDTH 23 0
BBX 21 21 1 0
BITMAP
ff8ff8
3e03e0
1c01c0
1c01c0
1c01c0
1c01c0
1c01c0
1c01c0
1c01c0
1c01c0
1fffc0
1c01c0
1c01c0
1c01c0
1c01c0
1c01c0
1c01c0
1c01c0
1c01c0
3e03e0
ff8ff8
ENDCHAR
STARTCHAR I
ENCODING 73
SWIDTH 440 0
DWIDTH 11 0
BBX 9 21 1 0
BITMAP
ff80
3e00
1c00
1c00
1c00
1c00
1c00
1c00
1c00
1c00
1c00
1c00
1c00
1c00
1c00
1c00
1c00
1c00
1c00
3e00
ff80
ENDCHAR
STARTCHAR J
ENCODING 74
SWIDTH 480 0
DWIDTH 12 0
BBX 11 21 1 0
BITMAP
3fe0
0f80
0700
0700
0700
0700
0700
0700
0700
0700
0700
0700
0700
0700
0700
0700
0700
c600
e600
ec00
7000
ENDCHAR
STARTCHAR K
ENCODING 75
SWIDTH 920 0
DWIDTH 23 0
BBX 22 21 1 0
BITMAP
ff8ff0
3e07c0
1c0700
1c0600
1c0c00
1c1800
1c3000
1c6000
1cc000
1d8000
1fc000
1de000
1cf000
1c7800
1c3c00
1c1e00
1c0f00
1c0780
1c03e0
3e03f8
ff8ffc
ENDCHAR
STARTCHAR L
ENCODING 76
SWIDTH 800 0
DWIDTH 20 0
BBX 18 21 1 0
BITMAP
ffc000
3e0000
1c0000
1c0000
1c0000
1c0000
1c0000
1c0000
1c0000
1c0000
1c0000
1c0000
1c0000
1c0000
1c0000
1c0040
1c0040
1c0080
1c0080
1c0300
ffff00
ENDCHAR
STARTCHAR M
ENCODING 77
SWIDTH 1120 0
DWIDTH 28 0
BBX 27 21 1 0
BITMAP
fc0007e0
3c000f80
1e000f00
1e001f00
1f001f00
17003700
17803700
13806700
13c06700
11c04700
11e0c700
10e08700
10f18700
10710700
107b0700
103a0700
103e0700
101c0700
101c0700
38080f80
fe083fe0
ENDCHAR
STARTCHAR N
ENCODING 78
SWIDTH 920 0
DWIDTH 23 0
BBX 23 21 0 0
BITMAP
fc00fe
3e0038
1e0010
0f0010
0f8010
0bc010
09e010
08f010
08f810
087c10
083e10
081e10
080f10
080790
0803d0
0801f0
0800f0
0800f0
080070
1c0030
7f0010
ENDCHAR
STARTCHAR O
ENCODING 79
SWIDTH 920 0
DWIDTH 23 0
BBX 21 22 1 0
BITMAP
00f800
070700
0e0380
1c01c0
3800e0
7800f0
7000f0
700070
700078
f00078
f00078
f00078
f00078
f00070
700070
780070
7800f0
3800e0
1c01c0
0e0380
070700
00f800
ENDCHAR
STARTCHAR P
ENCODING 80
SWIDTH 720 0
DWIDTH 18 0
BBX 16 21 1 0
BITMAP
ffe0
1c3c
1c1e
1c0e
1c0f
1c0f
1c0f
1c0f
1c0e
1c1e
1c3c
1ff0
1c00
1c00
1c00
1c00
1c00
1c00
1c00
3e00
ff80
ENDCHAR
STARTCHAR Q
ENCODING 81
SWIDTH 920 0
DWIDTH 23 0
BBX 21 28 1 -6
BITMAP
00f800
070f00
0e0380
1c01c0
3800e0
7800f0
7800f0
700070
f00078
f00078
f00078
f00078
f00078
f00078
700070
780070
7800f0
3800e0
1c01c0
0e0380
070700
01fc00
00f800
003c00
001e00
000f00
000380
000078
ENDCHAR
STARTCHAR R
ENCODING 82
SWIDTH 840 0
DWIDTH 21 0
BBX 20 21 1 0
BITMAP
ffc000
1c3c00
1c1e00
1c1f00
1c0f00
1c0f00
1c0f00
1c0e00
1c1e00
1c3800
1fe000
1c6000
1c7000
1c3800
1c3c00
1c1c00
1c0e00
1c0f00
1c0780
3e03e0
ff83f0
ENDCHAR
STARTCHAR S
ENCODING 83
SWIDTH 720 0
DWIDTH 18 0
BBX 14 22 2 0
BITMAP
0f88
38f0
7030
e010
e010
e008
f008
7800
7e00
3f00
0fc0
07e0
01f0
00f8
007c
803c
801c
c01c
c01c
e038
f870
8fc0
ENDCHAR
STARTCHAR T
ENCODING 84
SWIDTH 800 0
DWIDTH 20 0
BBX 18 21 1 0
BITMAP
ffffc0
c1c1c0
81c0c0
81c040
81c040
01c000
01c000
01c000
01c000
01c000
01c000
01c000
01c000
01c000
01c000
01c000
01c000
01c000
01c000
03e000
0ff800
ENDCHAR
STARTCHAR U
ENCODING 85
SWIDTH 920 0
DWIDTH 23 0
BBX 23 21 0 0
BITMAP
ff80fe
3e0038
1c0010
1c0010
1c0010
1c0010
1c0010
1c0010
1c0010
1c0010
1c0010
1c0010
1c0010
1c0010
1c0010
1c0010
1e0030
0e0020
0e0060
0783c0
007e00
ENDCHAR
STARTCHAR V
ENCODING 86
SWIDTH 920 0
DWIDTH 23 0
BBX 23 21 0 0
BITMAP
ff807e
3e003c
1e0018
1e0010
0e0030
0f0020
070020
078060
038040
03c0c0
01c080
01e180
00e100
00f300
007200
007a00
003e00
003c00
001c00
001800
000800
ENDCHAR
STARTCHAR W
ENCODING 87
SWIDTH 1200 0
DWIDTH 30 0
BBX 30 21 0 0
BITMAP
ff3fc0fc
3c0f0038
1c0f0030
1c070020
1e070020
0e038060
0e038040
0f03c0c0
0707c080
0705c080
038ce180
0388e100
0388f300
01d87200
01d07a00
01d03e00
00f03c00
00e03c00
00601800
00601800
00401800
ENDCHAR
STARTCHAR X
ENCODING 88
SWIDTH 920 0
DWIDTH 23 0
BBX 23 21 0 0
BITMAP
7fe3fc
1f80f0
0780c0
078080
03c180
01e300
00e200
007600
007c00
003c00
001c00
003e00
006e00
004f00
008700
010780
0203c0
0603c0
0c01e0
3c01f8
ff03fe
ENDCHAR
STARTCHAR Y
ENCODING 89
SWIDTH 920 0
DWIDTH 23 0
BBX 23 21 0 0
BITMAP
ff80fe
3e0078
1e0070
0e0060
0f0040
078080
038180
01c100
01e200
00f600
007c00
007800
003800
003800
003800
003800
003800
003800
003800
007c00
01ff00
ENDCHAR
STARTCHAR Z
ENCODING 90
SWIDTH 800 0
DWIDTH 20 0
BBX 18 21 1 0
BITMAP
3fff80
300700
200f00
201e00
403c00
003800
007800
00f000
00e000
01e000
03c000
038000
078000
0f0000
0e0000
1e0040
3c0040
380080
780080
f00380
ffff80
ENDCHAR
STARTCHAR bracketleft
ENCODING 91
SWIDTH 440 0
DWIDTH 11 0
BBX 7 28 3 -6
BITMAP
fe
c0
c0
c0
c0
c0
c0
c0
c0
c0
c0
c0
c0
c0
c0
c0
c0
c0
c0
c0
c0
c0
c0
c0
c0
c0
c0
fe
ENDCHAR
STARTCHAR backslash
ENCODING 92
SWIDTH 360 0
DWIDTH 9 0
BBX 8 22 0 0
BITMAP
80
80
c0
40
40
60
20
20
10
10
10
08
08
08
04
04
06
02
02
03
01
01
ENDCHAR
STARTCHAR bracketright
ENCODING 93
SWIDTH 440 0
DWIDTH 11 0
BBX 7 28 1 -6
BITMAP
fe
06
06
06
06
06
06
06
06
06
06
06
06
06
06
06
06
06
06
06
06
06
06
06
06
06
06
fe
ENDCHAR
STARTCHAR asciicircum
ENCODING 94
SWIDTH 600 0
DWIDTH 15 0
BBX 13 12 1 10
BITMAP
0200
0700
0500
0d80
0880
18c0
1040
3060
2020
4010
c018
8008
ENDCHAR
STARTCHAR underscore
ENCODING 95
SWIDTH 640 0
DWIDTH 16 0
BBX 16 1 0 -7
BITMAP
ffff
ENDCHAR
STARTCHAR grave
ENCODING 96
SWIDTH 440 0
DWIDTH 11 0
BBX 5 6 2 16
BITMAP
e0
60
70
30
10
08
ENDCHAR
STARTCHAR a
ENCODING 97
SWIDTH 560 0
DWIDTH 14 0
BBX 14 15 1 0
BITMAP
0f00
39c0
70e0
70e0
60e0
01e0
06e0
1ce0
30e0
70e0
e0e0
e0e0
f1e4
7ef8
3c60
ENDCHAR
STARTCHAR b
ENCODING 98
SWIDTH 640 0
DWIDTH 16 0
BBX 15 22 0 0
BITMAP
1800
f800
3800
3800
3800
3800
3800
38e0
3bf8
3c3c
381c
381e
380e
380e
380e
380e
380c
380c
381c
3818
3c30
07c0
ENDCHAR
STARTCHAR c
ENCODING 99
SWIDTH 560 0
DWIDTH 14 0
BBX 13 15 1 0
BITMAP
07c0
18e0
3070
7070
6020
e000
e000
e000
e000
f008
f010
7810
7c20
3fc0
0f80
ENDCHAR
STARTCHAR d
ENCODING 100
SWIDTH 640 0
DWIDTH 16 0
BBX 16 22 1 0
BITMAP
0018
00f8
0038
0038
0038
0038
0038
07b8
18f8
3078
7038
6038
e038
e038
e038
e038
e038
f038
7038
3c7f
1fbc
0f30
ENDCHAR
STARTCHAR e
ENCODING 101
SWIDTH 560 0
DWIDTH 14 0
BBX 13 15 1 0
BITMAP
0f80
31e0
60e0
4070
c070
fff0
c000
c000
c000
e008
e010
7010
7860
3fc0
1f80
ENDCHAR
STARTCHAR f
ENCODING 102
SWIDTH 440 0
DWIDTH 11 0
BBX 13 22 1 0
BITMAP
01e0
0678
0c38
0c18
0c00
1c00
1c00
1c00
ff80
1c00
1c00
1c00
1c00
1c00
1c00
1c00
1c00
1c00
1c00
1c00
3e00
ff80
ENDCHAR
STARTCHAR g
ENCODING 103
SWIDTH 640 0
DWIDTH 16 0
BBX 14 22 1 -7
BITMAP
0780
18fc
38fc
30e0
7070
7070
7070
3870
38e0
18c0
0f80
3000
3000
7ff0
1ff8
200c
6004
c004
e008
f030
7fe0
1f80
ENDCHAR
STARTCHAR h
ENCODING 104
SWIDTH 640 0
DWIDTH 16 0
BBX 15 22 1 0
BITMAP
1800
f800
3800
3800
3800
3800
3800
38c0
39f0
3a70
3c38
3838
3838
3838
3838
3838
3838
3838
3838
3838
3838
fefe
ENDCHAR
STARTCHAR i
ENCODING 105
SWIDTH 360 0
DWIDTH 9 0
BBX 7 22 1 0
BITMAP
38
38
38
00
00
00
00
18
f8
38
38
38
38
38
38
38
38
38
38
38
38
fe
ENDCHAR
STARTCHAR j
ENCODING 106
SWIDTH 360 0
DWIDTH 9 0
BBX 8 29 -2 -7
BITMAP
07
07
07
00
00
00
00
01
0f
1f
07
07
07
07
07
07
07
07
07
07
07
07
07
07
07
06
c6
e4
f8
ENDCHAR
STARTCHAR k
ENCODING 107
SWIDTH 640 0
DWIDTH 16 0
BBX 15 22 1 0
BITMAP
1800
f800
3800
3800
3800
3800
3800
3800
38fc
3870
3840
3880
3900
3a00
3f00
3b80
3b80
39c0
38e0
38f0
3878
fefe
ENDCHAR
STARTCHAR l
ENCODING 108
SWIDTH 360 0
DWIDTH 9 0
BBX 7 22 1 0
BITMAP
18
f8
38
38
38
38
38
38
38
38
38
38
38
38
38
38
38
38
38
38
38
fe
ENDCHAR
STARTCHAR m
ENCODING 109
SWIDTH 1000 0
DWIDTH 25 0
BBX 25 15 0 0
BITMAP
0ce07800
fdf9fc00
3e3f1e00
1c1c0e00
1c1c0e00
1c1c0e00
1c1c0e00
1c1c0e00
1c1c0e00
1c1c0e00
1c1c0e00
1c1c0e00
1c1c0e00
3c1c0e00
fe7f3f80
ENDCHAR
STARTCHAR n
ENCODING 110
SWIDTH 640 0
DWIDTH 16 0
BBX 16 15 0 0
BITMAP
0c70
fdf8
3e3c
1c1c
1c1c
1c1c
1c1c
1c1c
1c1c
1c1c
1c1c
1c1c
1c1c
3c1c
fe7f
ENDCHAR
STARTCHAR o
ENCODING 111
SWIDTH 640 0
DWIDTH 16 0
BBX 14 15 1 0
BITMAP
0780
18e0
3070
6038
6038
e01c
e01c
e01c
e01c
e018
7018
7038
3830
1c60
0f80
ENDCHAR
STARTCHAR p
ENCODING 112
SWIDTH 640 0
DWIDTH 16 0
BBX 15 22 0 -7
BITMAP
19f0
fbf8
3c3c
381c
381e
380e
380e
380e
380e
380e
380c
381c
3c18
3e30
3be0
3800
3800
3800
3800
3800
3800
fe00
ENDCHAR
STARTCHAR q
ENCODING 113
SWIDTH 640 0
DWIDTH 16 0
BBX 15 22 1 -7
BITMAP
07d8
1878
3038
7038
6038
e038
e038
e038
e038
e038
f038
7038
7878
3fb8
0f38
0038
0038
0038
0038
0038
0038
00fe
ENDCHAR
STARTCHAR r
ENCODING 114
SWIDTH 440 0
DWIDTH 11 0
BBX 11 15 0 0
BITMAP
0dc0
fde0
1ee0
1c00
1c00
1c00
1c00
1c00
1c00
1c00
1c00
1c00
1c00
3c00
fe00
ENDCHAR
STARTCHAR s
ENCODING 115
SWIDTH 480 0
DWIDTH 12 0
BBX 9 15 2 0
BITMAP
3c80
6780
c180
c180
e080
f000
7c00
3e00
0f80
0780
8380
8180
c180
e300
be00
ENDCHAR
STARTCHAR t
ENCODING 116
SWIDTH 360 0
DWIDTH 9 0
BBX 9 19 0 0
BITMAP
0400
0400
0c00
1c00
3c00
ff00
1c00
1c00
1c00
1c00
1c00
1c00
1c00
1c00
1c00
1c00
1c80
1f00
0e00
ENDCHAR
STARTCHAR u
ENCODING 117
SWIDTH 640 0
DWIDTH 16 0
BBX 16 14 0 0
BITMAP
f87c
381c
381c
381c
381c
381c
381c
381c
381c
381c
381c
3c7d
1fde
0718
ENDCHAR
STARTCHAR v
ENCODING 118
SWIDTH 640 0
DWIDTH 16 0
BBX 16 14 0 0
BITMAP
fe1f
7806
3804
1c08
1c08
0e10
0e10
0730
0720
03e0
03c0
01c0
0180
0080
ENDCHAR
STARTCHAR w
ENCODING 119
SWIDTH 920 0
DWIDTH 23 0
BBX 23 14 0 0
BITMAP
fcfe3e
78380c
383818
381c10
1c1c10
1c1c30
0c2e20
0e2660
064740
074740
078380
038380
030180
010100
ENDCHAR
STARTCHAR x
ENCODING 120
SWIDTH 640 0
DWIDTH 16 0
BBX 16 14 0 0
BITMAP
fe7c
1c30
0e20
0640
07c0
0380
0380
03c0
02e0
04e0
0c70
1838
383c
7c7f
ENDCHAR
STARTCHAR y
ENCODING 121
SWIDTH 640 0
DWIDTH 16 0
BBX 16 21 0 -7
BITMAP
fc1f
780e
380c
380c
1808
1c18
0c10
0e30
0620
0760
03c0
03c0
0180
0180
0100
0300
0200
0600
7c00
7800
7000
ENDCHAR
STARTCHAR z
ENCODING 122
SWIDTH 560 0
DWIDTH 14 0
BBX 13 14 1 0
BITMAP
7ff0
4070
40e0
c1c0
0380
0380
0700
0e00
1c00
1c00
3808
7010
e010
fff0
ENDCHAR
STARTCHAR braceleft
ENCODING 123
SWIDTH 600 0
DWIDTH 15 0
BBX 9 29 4 -7
BITMAP
0180
0600
0c00
0800
1800
1800
1800
1c00
1c00
1c00
0c00
1800
1000
6000
c000
2000
1000
1800
0c00
1c00
1c00
1c00
1800
1800
1800
0800
0c00
0600
0180
ENDCHAR
STARTCHAR bar
ENCODING 124
SWIDTH 240 0
DWIDTH 6 0
BBX 1 29 3 -7
BITMAP
80
80
80
80
80
80
80
80
80
80
80
80
80
80
80
80
80
80
80
80
80
80
80
80
80
80
80
80
80
ENDCHAR
STARTCHAR braceright
ENCODING 125
SWIDTH 600 0
DWIDTH 15 0
BBX 8 29 3 -7
BITMAP
c0
30
18
08
0c
0c
0c
1c
1c
1c
18
0c
04
02
01
02
04
0c
18
1c
1c
1c
0c
0c
0c
08
18
30
c0
ENDCHAR
STARTCHAR asciitilde
ENCODING 126
SWIDTH 680 0
DWIDTH 17 0
BBX 17 5 1 6
BITMAP
380080
7e0100
83c100
807e00
801c00
ENDCHAR
STARTCHAR C200
ENCODING 128
SWIDTH 720 0
DWIDTH 18 0
BBX 14 20 2 0
BITMAP
0704
1fc8
30f8
6070
5f80
e1c0
80e0
3c60
2670
4770
4770
3f70
0770
0770
0770
0770
0770
0770
0770
01c0
ENDCHAR
STARTCHAR C201
ENCODING 129
SWIDTH 0 0
DWIDTH 0 0
BBX 14 8 -22 23
BITMAP
0f80
1ff0
3878
6018
c00c
ffc4
007c
0004
ENDCHAR
STARTCHAR C202
ENCODING 130
SWIDTH 0 0
DWIDTH 0 0
BBX 16 10 -24 22
BITMAP
000e
000e
07ce
1ffe
703e
c006
ffc6
c1fa
000e
0001
ENDCHAR
STARTCHAR C203
ENCODING 131
SWIDTH 0 0
DWIDTH 0 0
BBX 16 11 -22 23
BITMAP
000e
0033
0031
07e1
1ff3
783e
600c
c006
ffe2
003e
0003
ENDCHAR
STARTCHAR C204
ENCODING 132
SWIDTH 0 0
DWIDTH 0 0
BBX 15 11 -21 22
BITMAP
019c
019c
019c
0fdc
3ffc
787c
601c
c00c
ffc4
807c
0006
ENDCHAR
STARTCHAR C205
ENCODING 133
SWIDTH 1280 0
DWIDTH 32 0
BBX 24 3 4 0
BITMAP
601806
f03c0f
601806
ENDCHAR
STARTCHAR C206
ENCODING 134
SWIDTH 0 0
DWIDTH 0 0
BBX 4 8 -12 24
BITMAP
f0
e0
e0
60
60
60
60
60
ENDCHAR
STARTCHAR C207
ENCODING 135
SWIDTH 0 0
DWIDTH 0 0
BBX 13 13 -16 21
BITMAP
0018
3818
4c18
8618
8630
4e30
7e70
0c60
0ce0
1bc0
3f00
fc00
e000
ENDCHAR
STARTCHAR C210
ENCODING 136
SWIDTH 0 0
DWIDTH 0 0
BBX 16 12 -22 23
BITMAP
0002
0007
30c3
79e3
6773
c633
8037
8036
8e2c
ce3c
7670
1c40
ENDCHAR
STARTCHAR C211
ENCODING 137
SWIDTH 0 0
DWIDTH 0 0
BBX 11 11 -17 22
BITMAP
0e00
0e00
0e00
0e00
ffe0
ffe0
ffe0
0e00
0e00
0e00
0e00
ENDCHAR
STARTCHAR C212
ENCODING 138
SWIDTH 0 0
DWIDTH 0 0
BBX 10 13 -15 23
BITMAP
0080
00c0
00c0
01c0
0180
0700
7e00
fc00
8400
8400
cc00
7800
3800
ENDCHAR
STARTCHAR C213
ENCODING 139
SWIDTH 0 0
DWIDTH 0 0
BBX 4 8 -6 24
BITMAP
f0
70
70
60
60
60
60
60
ENDCHAR
STARTCHAR C214
ENCODING 140
SWIDTH 0 0
DWIDTH 0 0
BBX 12 13 -11 21
BITMAP
0030
3830
4c30
8630
8620
4e60
7e60
0cc0
0dc0
1b80
3f00
fc00
e000
ENDCHAR
STARTCHAR C215
ENCODING 141
SWIDTH 0 0
DWIDTH 0 0
BBX 15 12 -14 23
BITMAP
0004
000e
2186
73c6
4ee6
cc66
806e
806c
9c58
dc78
6ce0
3880
ENDCHAR
STARTCHAR C216
ENCODING 142
SWIDTH 0 0
DWIDTH 0 0
BBX 11 11 -10 22
BITMAP
0e00
0e00
0e00
0e00
ffe0
ffe0
ffe0
0e00
0e00
0e00
0e00
ENDCHAR
STARTCHAR C217
ENCODING 143
SWIDTH 0 0
DWIDTH 0 0
BBX 11 13 -10 23
BITMAP
0040
0060
0060
00e0
00c0
0380
7f00
ee00
8200
8200
c600
7c00
3800
ENDCHAR
STARTCHAR C220
ENCODING 144
SWIDTH 1040 0
DWIDTH 26 0
BBX 22 20 1 0
BITMAP
078004
0fe00c
38f01c
60381c
c01c1c
801c1c
fe1c1c
1c1c1c
1c1c1c
1c1c1c
1c1c1c
1c1c1c
1c1c1c
1c1c1c
1c1c1c
1f1c1c
1d9c1c
1c9c1c
0d8e38
0703e0
ENDCHAR
STARTCHAR C221
ENCODING 145
SWIDTH 440 0
DWIDTH 11 0
BBX 4 8 3 14
BITMAP
10
60
40
80
80
f0
f0
70
ENDCHAR
STARTCHAR C222
ENCODING 146
SWIDTH 440 0
DWIDTH 11 0
BBX 5 8 3 14
BITMAP
70
f8
f8
08
08
10
30
40
ENDCHAR
STARTCHAR C223
ENCODING 147
SWIDTH 560 0
DWIDTH 14 0
BBX 12 8 1 14
BITMAP
1020
6040
4040
8080
8080
f0e0
f8f0
7060
ENDCHAR
STARTCHAR C224
ENCODING 148
SWIDTH 560 0
DWIDTH 14 0
BBX 12 8 1 17
BITMAP
e0e0
f1f0
f0f0
1010
1010
2020
6060
8080
ENDCHAR
STARTCHAR C225
ENCODING 149
SWIDTH 440 0
DWIDTH 11 0
BBX 8 8 2 7
BITMAP
3c
7e
ff
ff
ff
ff
7e
3c
ENDCHAR
STARTCHAR C226
ENCODING 150
SWIDTH 640 0
DWIDTH 16 0
BBX 16 1 0 7
BITMAP
ffff
ENDCHAR
STARTCHAR C227
ENCODING 151
SWIDTH 1280 0
DWIDTH 32 0
BBX 32 1 0 7
BITMAP
ffffffff
ENDCHAR
STARTCHAR C230
ENCODING 152
SWIDTH 0 0
DWIDTH 0 0
BBX 12 7 -19 23
BITMAP
7010
cc30
8430
8460
c8e0
7f80
3e00
ENDCHAR
STARTCHAR C231
ENCODING 153
SWIDTH 0 0
DWIDTH 0 0
BBX 7 8 -15 22
BITMAP
38
7c
ee
c6
c6
ee
7c
38
ENDCHAR
STARTCHAR C232
ENCODING 154
SWIDTH 0 0
DWIDTH 0 0
BBX 12 13 -19 23
BITMAP
0070
0070
0070
0070
00e0
7fc0
7f80
80c0
81e0
b8f0
7e70
67e0
21c0
ENDCHAR
STARTCHAR C233
ENCODING 155
SWIDTH 0 0
DWIDTH 0 0
BBX 4 6 -13 35
BITMAP
f0
60
60
60
60
60
ENDCHAR
STARTCHAR C234
ENCODING 156
SWIDTH 0 0
DWIDTH 0 0
BBX 9 10 -10 36
BITMAP
0180
6180
9180
9180
d300
3300
3600
2c00
f800
e000
ENDCHAR
STARTCHAR C235
ENCODING 157
SWIDTH 0 0
DWIDTH 0 0
BBX 12 9 -14 36
BITMAP
0020
0030
6330
7730
c9b0
80a0
98e0
59c0
3900
ENDCHAR
STARTCHAR C236
ENCODING 158
SWIDTH 0 0
DWIDTH 0 0
BBX 8 8 -13 36
BITMAP
18
18
18
ff
ff
18
18
18
ENDCHAR
STARTCHAR C237
ENCODING 159
SWIDTH 0 0
DWIDTH 0 0
BBX 8 10 -11 32
BITMAP
01
03
03
06
3c
78
88
88
88
70
ENDCHAR
STARTCHAR exclamdown
ENCODING 161
SWIDTH 760 0
DWIDTH 19 0
BBX 15 20 2 0
BITMAP
0fe0
3078
601c
401c
800e
fe0e
fe0e
700e
700e
700e
700e
700e
700e
700e
700e
700e
700e
700e
700c
7008
ENDCHAR
STARTCHAR cent
ENCODING 162
SWIDTH 760 0
DWIDTH 19 0
BBX 16 20 1 0
BITMAP
0001
1e03
3f03
6387
c387
fb87
c787
c787
4787
3b87
0387
0387
0387
0387
0387
0387
0387
0387
01c6
00fc
ENDCHAR
STARTCHAR sterling
ENCODING 163
SWIDTH 880 0
DWIDTH 22 0
BBX 18 20 1 0
BITMAP
308040
78c0c0
7de1c0
47e1c0
c2e1c0
80e1c0
80e1c0
8ee1c0
c3e1c0
63e1c0
3ee1c0
1ce1c0
00e1c0
00e1c0
00e1c0
00e1c0
00e1c0
00e1c0
007380
001e00
ENDCHAR
STARTCHAR currency
ENCODING 164
SWIDTH 760 0
DWIDTH 19 0
BBX 16 20 1 0
BITMAP
03e0
0ff8
1c3c
300e
6007
4307
4787
4c47
6c47
7c47
3f87
1c07
1c07
1c07
1c07
1c07
1c07
1c07
1c07
1c07
ENDCHAR
STARTCHAR yen
ENCODING 165
SWIDTH 800 0
DWIDTH 20 0
BBX 16 20 1 0
BITMAP
0e30
1b7c
31de
20ce
6087
4007
4387
4c47
4c47
7c47
3f87
1c07
1c07
1c07
1c07
1c07
1c07
1c07
1c07
1c07
ENDCHAR
STARTCHAR brokenbar
ENCODING 166
SWIDTH 960 0
DWIDTH 24 0
BBX 20 20 1 0
BITMAP
30c010
79e070
6ff070
c67070
c27070
807070
807070
867070
c37070
437070
7e7070
187070
007070
00f870
03fe70
067370
0471f0
0670f0
03e0f0
01c070
ENDCHAR
STARTCHAR section
ENCODING 167
SWIDTH 600 0
DWIDTH 15 0
BBX 10 20 2 0
BITMAP
0700
0580
08c0
08c0
09c0
07c0
01c0
01c0
81c0
81c0
c1c0
61c0
31c0
39c0
1dc0
0fc0
07c0
07c0
03c0
01c0
ENDCHAR
STARTCHAR diaeresis
ENCODING 168
SWIDTH 680 0
DWIDTH 17 0
BBX 13 20 1 0
BITMAP
0780
1fc0
71e0
4070
c038
3c38
4738
4738
4738
3f38
0738
0738
0738
0738
0738
0738
0738
0738
03b0
01c0
ENDCHAR
STARTCHAR copyright
ENCODING 169
SWIDTH 840 0
DWIDTH 21 0
BBX 17 20 1 0
BITMAP
03e000
1ff800
703c00
c01e00
400f00
3c0700
470700
470700
670700
3f0700
070700
070700
070700
070700
073f00
07cf00
079880
071080
071980
070f00
ENDCHAR
STARTCHAR ordfeminine
ENCODING 170
SWIDTH 800 0
DWIDTH 20 0
BBX 18 20 1 0
BITMAP
1f01c0
7fc3c0
63c3c0
c0e380
80e700
98ee00
9cf800
c4ec00
44e600
38e600
00e700
00e700
00e700
00e700
00e700
00e700
00e600
00e600
00ec00
07f800
ENDCHAR
STARTCHAR guillemotleft
ENCODING 171
SWIDTH 880 0
DWIDTH 22 0
BBX 20 20 1 0
BITMAP
108070
31e060
7be0e0
4ef0e0
cc71c0
847380
807f00
807f00
987300
cc7380
4471c0
7c71c0
0071c0
0071c0
0071c0
0071c0
007180
007380
007380
03ff00
ENDCHAR
STARTCHAR notsign
ENCODING 172
SWIDTH 1000 0
DWIDTH 25 0
BBX 21 20 1 0
BITMAP
078008
1fe018
387838
603838
401c38
801c38
fe1c38
381c38
381c38
381c38
381c38
381c38
381c38
381c38
3c7e38
66df38
429db8
429cf8
265878
187038
ENDCHAR
STARTCHAR hyphen
ENCODING 173
SWIDTH 1040 0
DWIDTH 26 0
BBX 22 29 1 -9
BITMAP
07c004
0fe00c
38f01c
60381c
c01c1c
801c1c
fe1c1c
1c1c1c
1c1c1c
1c1c1c
1c1c1c
1c1c1c
1c1c1c
1c1c1c
1c1c1c
1f1c1c
1d9c1c
1c9c1c
0d8e78
0703e0
000000
000c38
000e38
001e38
001438
001878
000c70
0007f0
0003c0
ENDCHAR
STARTCHAR registered
ENCODING 174
SWIDTH 840 0
DWIDTH 21 0
BBX 17 30 1 -10
BITMAP
01f000
07fc00
1c1e00
300700
200700
600380
7f0380
1c0380
1c0380
1c0380
1c0380
1c0380
1c0380
1c0380
1c0380
7c0380
8c0380
840380
8c2380
706380
00c380
00c380
078380
18e380
18b380
189b80
0b0f80
070780
000780
000380
ENDCHAR
STARTCHAR macron
ENCODING 175
SWIDTH 840 0
DWIDTH 21 0
BBX 16 30 2 -10
BITMAP
03e0
0ff8
383c
701e
400e
4007
7f07
7f07
1c07
1c07
1c07
1c07
1c07
1c07
1c07
7c07
8c07
8c07
8c07
70c7
0187
0107
1d07
6707
4307
6387
26b7
1ccf
000f
0007
ENDCHAR
STARTCHAR degree
ENCODING 176
SWIDTH 720 0
DWIDTH 18 0
BBX 15 29 1 -9
BITMAP
0782
0fe4
187c
3038
2fc0
70e0
4070
1c30
2338
23b8
23b8
1fb8
03b8
03b8
03b8
03b8
03b8
03b8
03b8
01e0
0000
0460
3c98
6c98
8c78
8a18
7a18
03f8
03f0
ENDCHAR
STARTCHAR plusminus
ENCODING 177
SWIDTH 1040 0
DWIDTH 26 0
BBX 22 20 1 0
BITMAP
10c070
38e0f8
6df1f8
47711c
c2731c
80721c
80721c
86721c
43761c
63741c
7e741c
1c741c
007c1c
00781c
00781c
00781c
00781c
00781c
00701c
00701c
ENDCHAR
STARTCHAR twosuperior
ENCODING 178
SWIDTH 1000 0
DWIDTH 25 0
BBX 21 20 1 0
BITMAP
043018
1e7838
32fc38
619e38
410e38
c00e38
818e38
824e38
842e38
c66e38
63ce38
61ce38
730e38
3e0e38
3c3f38
386fb8
384ef8
384e78
386e78
383c38
ENDCHAR
STARTCHAR threesuperior
ENCODING 179
SWIDTH 1040 0
DWIDTH 26 0
BBX 22 20 1 0
BITMAP
07c008
1ff018
387838
603838
403c38
c01c38
fe1c38
1c1c38
1c1c38
1c1c38
1c1c38
1c1c38
1c1c38
1c1c38
1f1cf8
1d9d3c
1c9e44
1c9e44
0d9c4c
071c38
ENDCHAR
STARTCHAR acute
ENCODING 180
SWIDTH 800 0
DWIDTH 20 0
BBX 15 20 2 0
BITMAP
07c0
1ff0
3878
603c
601e
c00e
c70e
ccce
c84e
48ce
648e
238e
370e
3e0e
3c0e
380e
380e
380e
380e
380e
ENDCHAR
STARTCHAR mu
ENCODING 181
SWIDTH 800 0
DWIDTH 20 0
BBX 16 20 1 0
BITMAP
0610
1e3c
317e
61ce
6087
c007
c3c7
c667
c427
c427
6267
73c7
3987
3b07
3e07
3c07
3807
3807
3807
3807
ENDCHAR
STARTCHAR paragraph
ENCODING 182
SWIDTH 760 0
DWIDTH 19 0
BBX 15 20 1 0
BITMAP
07c0
1ff0
3838
601c
401c
c00e
fe0e
380e
380e
380e
380e
380e
380e
380e
380e
3f0e
398e
388e
198e
070c
ENDCHAR
STARTCHAR periodcentered
ENCODING 183
SWIDTH 880 0
DWIDTH 22 0
BBX 18 20 1 0
BITMAP
3c0700
c60f80
8719c0
8711c0
4731c0
3f21c0
0721c0
0721c0
0761c0
0741c0
0741c0
0741c0
0741c0
0781c0
0781c0
0781c0
0781c0
0781c0
0701c0
0701c0
ENDCHAR
STARTCHAR cedilla
ENCODING 184
SWIDTH 760 0
DWIDTH 19 0
BBX 15 20 1 0
BITMAP
0f82
3fe2
67fc
4638
f700
3f80
07f0
073c
071c
071c
071c
071c
071c
071c
071c
071c
071c
071c
071c
3ff0
ENDCHAR
STARTCHAR onesuperior
ENCODING 185
SWIDTH 880 0
DWIDTH 22 0
BBX 19 20 1 0
BITMAP
3c0040
c601c0
8701c0
8701c0
c701c0
7f01c0
0701c0
0701c0
0701c0
0701c0
0701c0
0701c0
0701c0
0701c0
071fc0
0773c0
07c420
078420
078660
0703c0
ENDCHAR
STARTCHAR masculine
ENCODING 186
SWIDTH 880 0
DWIDTH 22 0
BBX 18 20 1 0
BITMAP
3c01c0
7e01c0
cf01c0
8701c0
4f01c0
7f01c0
0701c0
0701c0
0701c0
0701c0
0701c0
0701c0
0701c0
0701c0
0701c0
0701c0
0701c0
0701c0
0703c0
1fff00
ENDCHAR
STARTCHAR guillemotright
ENCODING 187
SWIDTH 880 0
DWIDTH 22 0
BBX 18 31 1 0
BITMAP
0000c0
0001c0
0001c0
0001c0
0001c0
0001c0
0001c0
0001c0
0001c0
0001c0
0001c0
3c01c0
7e01c0
cf01c0
8701c0
8701c0
4f01c0
7f01c0
0701c0
0701c0
0701c0
0701c0
0701c0
0701c0
0701c0
0701c0
0701c0
0701c0
0701c0
0703c0
1fff00
ENDCHAR
STARTCHAR onequarter
ENCODING 188
SWIDTH 760 0
DWIDTH 19 0
BBX 15 20 1 0
BITMAP
3c0e
620e
e20e
e20e
fc0e
e00e
e00e
e10e
e30e
e28e
e6ce
e44e
ec6e
e82e
f01e
f01e
e00e
e00e
e00c
e008
ENDCHAR
STARTCHAR onehalf
ENCODING 189
SWIDTH 760 0
DWIDTH 19 0
BBX 15 32 1 0
BITMAP
0002
0006
000e
000e
000e
000e
000e
000e
000e
000e
000e
000e
3c0e
620e
e20e
e20e
fc0e
e00e
e00e
e10e
e30e
e28e
e6ce
e44e
ec6e
e82e
f01e
f01e
e00e
e00e
e00c
e008
ENDCHAR
STARTCHAR threequarters
ENCODING 190
SWIDTH 920 0
DWIDTH 23 0
BBX 19 20 1 0
BITMAP
7c18e0
4f18e0
8718e0
8718e0
4f3ce0
3f24e0
0724e0
0724e0
0726e0
0742e0
0742e0
0742e0
0743e0
07c3e0
0781e0
0781e0
0781e0
0781e0
0700e0
0700e0
ENDCHAR
STARTCHAR questiondown
ENCODING 191
SWIDTH 920 0
DWIDTH 23 0
BBX 19 31 1 0
BITMAP
000060
0000e0
0000e0
0000e0
0000e0
0000e0
0000e0
0000e0
0000e0
0000e0
0000e0
7c18e0
4e18e0
8718e0
8718e0
473ce0
3f24e0
0724e0
0724e0
0726e0
0742e0
0742e0
0742e0
0742e0
07c1e0
0781e0
0781e0
0781e0
0781e0
0700e0
0700e0
ENDCHAR
STARTCHAR Agrave
ENCODING 192
SWIDTH 800 0
DWIDTH 20 0
BBX 16 20 1 0
BITMAP
01f0
07f8
0e3c
180e
1007
3007
3f87
0e07
0e07
0e07
0e07
0e07
0e07
0e07
7e07
4e07
8607
8607
ce06
3806
ENDCHAR
STARTCHAR Aacute
ENCODING 193
SWIDTH 840 0
DWIDTH 21 0
BBX 17 20 1 0
BITMAP
380080
4c0180
860380
860380
4e0380
3e0380
0e0380
0e0380
0e0380
0e0380
0e0380
0e0380
0e0380
0e0380
3f0380
2fc380
4e6380
4e3b80
3c1f00
1c0e00
ENDCHAR
STARTCHAR Acircumflex
ENCODING 194
SWIDTH 680 0
DWIDTH 17 0
BBX 13 20 1 0
BITMAP
1e18
3338
2138
6138
7338
5e38
6038
3038
3f38
3038
6038
e038
e038
e038
e038
6038
7030
3c60
1fc0
0780
ENDCHAR
STARTCHAR Atilde
ENCODING 195
SWIDTH 680 0
DWIDTH 17 0
BBX 13 20 2 0
BITMAP
1808
3e10
67e0
c0c0
c000
f000
1e00
03c0
01c0
01c0
01c0
01c0
01c0
01c0
01c0
0fc0
11c0
11c0
1180
0f00
ENDCHAR
STARTCHAR Adiaeresis
ENCODING 196
SWIDTH 760 0
DWIDTH 19 0
BBX 15 28 1 -8
BITMAP
07c0
1ff0
3838
601c
401c
c00e
fe0e
380e
380e
380e
380e
380e
380e
380e
380e
3f0e
398e
388e
198e
070e
000e
000e
000e
000e
000e
000e
000c
000c
ENDCHAR
STARTCHAR Aring
ENCODING 197
SWIDTH 760 0
DWIDTH 19 0
BBX 15 20 1 0
BITMAP
07c0
1ff0
3838
401c
c00e
438e
07ee
1e3e
1c1e
380e
380e
380e
380e
380e
3f0e
398e
308e
188e
190e
0e0e
ENDCHAR
STARTCHAR AE
ENCODING 198
SWIDTH 800 0
DWIDTH 20 0
BBX 16 28 1 -8
BITMAP
01f0
07f8
0e1c
180e
1007
3007
3f87
0e07
0e07
0e07
0e07
0e07
0e07
0e07
0e07
7e07
c607
8607
c607
3807
0007
0007
0007
0007
0007
0007
0006
0006
ENDCHAR
STARTCHAR Ccedilla
ENCODING 199
SWIDTH 680 0
DWIDTH 17 0
BBX 13 20 2 0
BITMAP
0f80
3fe0
70f0
c078
8038
8038
0038
0038
0038
0038
0038
0038
0038
0038
01f8
0138
0218
0218
0130
01e0
ENDCHAR
STARTCHAR Egrave
ENCODING 200
SWIDTH 760 0
DWIDTH 19 0
BBX 18 21 1 0
BITMAP
0001c0
07c1c0
1ff180
307b80
601f00
c00e00
870e00
8f3e00
98ee00
988e00
f88e00
7f0e00
380e00
380e00
380e00
380e00
380e00
380e00
380e00
380e00
380e00
ENDCHAR
STARTCHAR Eacute
ENCODING 201
SWIDTH 880 0
DWIDTH 22 0
BBX 17 20 1 0
BITMAP
380080
4c0380
8e0380
8e0380
ce0380
7e0380
0e0380
0e0380
0ee380
0ff380
0f1380
0e0380
0f8780
0e7b80
0e0380
0e0380
0e0380
0e0380
0e0700
3ffe00
ENDCHAR
STARTCHAR Ecircumflex
ENCODING 202
SWIDTH 880 0
DWIDTH 22 0
BBX 18 21 2 0
BITMAP
0001c0
07c1c0
0ff1c0
387b80
603f00
c01e00
83ee00
0fee00
1c3e00
181e00
380e00
380e00
380e00
380e00
380e00
3e0e00
3b0e00
310e00
110e00
190e00
0e0e00
ENDCHAR
STARTCHAR Ediaeresis
ENCODING 203
SWIDTH 920 0
DWIDTH 23 0
BBX 19 20 1 0
BITMAP
3c03c0
fe0360
c70620
870420
c70620
7f07c0
070fc0
0719c0
0731c0
0721c0
0741c0
0781c0
0781c0
0701c0
0701c0
0701c0
0701c0
0701c0
0701c0
0701c0
ENDCHAR
STARTCHAR Igrave
ENCODING 204
SWIDTH 880 0
DWIDTH 22 0
BBX 21 21 1 0
BITMAP
000398
380258
ce1478
861470
8612f0
ce33e0
3e31c0
0e39c0
0e69c0
0e49c0
0e49c0
0e4dc0
0ec5c0
0e85c0
0e85c0
0f83c0
0f03c0
0f03c0
0f03c0
0e01c0
0e01c0
ENDCHAR
STARTCHAR Iacute
ENCODING 205
SWIDTH 760 0
DWIDTH 19 0
BBX 14 20 2 0
BITMAP
0780
3fe0
7070
c038
801c
9e1c
321c
611c
611c
721c
7e1c
701c
701c
701c
701c
701c
701c
3838
1c70
07c0
ENDCHAR
STARTCHAR Icircumflex
ENCODING 206
SWIDTH 720 0
DWIDTH 18 0
BBX 14 20 1 0
BITMAP
0f1c
3fbc
70f8
40f0
4070
30f0
0f70
1c70
7270
e170
e170
f370
fe70
e070
e070
e070
6070
7060
38e0
0f00
ENDCHAR
STARTCHAR Idiaeresis
ENCODING 207
SWIDTH 800 0
DWIDTH 20 0
BBX 13 20 2 0
BITMAP
00f8
01f8
01b8
0138
3938
7d38
e538
c238
e238
7c38
3838
0038
0038
0038
0038
0038
0038
0038
0038
0038
ENDCHAR
STARTCHAR ETH
ENCODING 208
SWIDTH 720 0
DWIDTH 18 0
BBX 14 19 1 0
BITMAP
3c0c
e71c
c31c
c338
e678
7fe0
3f80
0000
0000
0000
0000
0000
3c0c
e71c
c31c
c338
e678
7fe0
3f80
ENDCHAR
STARTCHAR Ntilde
ENCODING 209
SWIDTH 0 0
DWIDTH 0 0
BBX 13 7 -12 23
BITMAP
3808
c618
8218
8230
c470
7fc0
3f00
ENDCHAR
STARTCHAR Ograve
ENCODING 210
SWIDTH 560 0
DWIDTH 14 0
BBX 10 20 1 0
BITMAP
3e00
6780
c3c0
01c0
01c0
01c0
01c0
01c0
01c0
01c0
01c0
01c0
01c0
01c0
01c0
01c0
01c0
01c0
01c0
01c0
ENDCHAR
STARTCHAR Oacute
ENCODING 211
SWIDTH 560 0
DWIDTH 14 0
BBX 19 31 -8 0
BITMAP
380000
7c0000
c60000
c60000
c60000
7c0000
380000
000000
000000
000000
000000
001f00
0033c0
0061e0
0000e0
0000e0
0000e0
0000e0
0000e0
0000e0
0000e0
0000e0
0000e0
0000e0
0000e0
0000e0
0000e0
0000e0
0000e0
0000e0
0000e0
ENDCHAR
STARTCHAR Ocircumflex
ENCODING 212
SWIDTH 0 0
DWIDTH 0 0
BBX 14 8 -16 23
BITMAP
0f80
1ff0
3878
6018
c00c
ffc4
007c
0004
ENDCHAR
STARTCHAR Otilde
ENCODING 213
SWIDTH 0 0
DWIDTH 0 0
BBX 15 10 -18 22
BITMAP
001c
001c
0f9c
3ffc
707c
c00c
ff8c
c1f6
001e
0002
ENDCHAR
STARTCHAR Odiaeresis
ENCODING 214
SWIDTH 0 0
DWIDTH 0 0
BBX 16 11 -17 23
BITMAP
000e
0033
0031
07e1
1ff3
783e
600c
c006
ffe2
003e
0003
ENDCHAR
STARTCHAR multiply
ENCODING 215
SWIDTH 0 0
DWIDTH 0 0
BBX 15 11 -16 22
BITMAP
019c
019c
019c
0fdc
3ffc
787c
601c
c00c
ffc4
807c
0006
ENDCHAR
STARTCHAR Ooblique
ENCODING 216
SWIDTH 0 0
DWIDTH 0 0
BBX 6 8 -9 -9
BITMAP
78
9c
9c
9c
9c
7c
1c
1c
ENDCHAR
STARTCHAR Ugrave
ENCODING 217
SWIDTH 0 0
DWIDTH 0 0
BBX 10 9 -13 -10
BITMAP
6000
99c0
89c0
89c0
c9c0
79c0
09c0
0fc0
0700
ENDCHAR
STARTCHAR Uacute
ENCODING 218
SWIDTH 0 0
DWIDTH 0 0
BBX 4 4 -6 -7
BITMAP
60
f0
f0
60
ENDCHAR
STARTCHAR Ucircumflex
ENCODING 219
SWIDTH 440 0
DWIDTH 11 0
BBX 0 0 0 0
BITMAP
ENDCHAR
STARTCHAR Udiaeresis
ENCODING 220
SWIDTH 440 0
DWIDTH 11 0
BBX 9 5 1 -5
BITMAP
ff80
ff80
8180
8080
8080
ENDCHAR
STARTCHAR ssharp
ENCODING 223
SWIDTH 880 0
DWIDTH 22 0
BBX 19 26 1 -2
BITMAP
00e000
00e000
00e000
fff800
3ffe00
1ee780
1ce380
1ce3c0
1ce1c0
1ce1c0
1ce1c0
1ce380
1ce700
1ffc00
1cef80
1ce1c0
1ce1e0
1ce1e0
1ce1e0
1ce1e0
1ce1e0
1ce3c0
3fff80
fffe00
00e000
00e000
ENDCHAR
STARTCHAR agrave
ENCODING 224
SWIDTH 320 0
DWIDTH 8 0
BBX 6 20 1 0
BITMAP
10
70
70
70
70
70
70
70
70
70
70
70
70
70
78
c4
84
84
48
30
ENDCHAR
STARTCHAR aacute
ENCODING 225
SWIDTH 720 0
DWIDTH 18 0
BBX 17 20 1 0
BITMAP
100400
701c00
701c00
701c00
701c00
701c00
701c00
701c00
701c00
701c00
701c00
701c00
701c00
701c00
781e00
c43100
842100
842100
481200
300c00
ENDCHAR
STARTCHAR acircumflex
ENCODING 226
SWIDTH 680 0
DWIDTH 17 0
BBX 13 32 2 0
BITMAP
1c00
7f08
cff8
c1f0
7060
1c00
0700
01c0
01c0
01c0
01c0
01c0
01c0
01c0
01c0
01c0
01c0
01c0
01c0
01c0
01c0
01c0
01c0
01c0
01c0
01c0
01e0
0310
0210
0210
0330
00c0
ENDCHAR
STARTCHAR atilde
ENCODING 227
SWIDTH 600 0
DWIDTH 15 0
BBX 12 32 1 0
BITMAP
1f00
7f80
63c0
c1c0
89c0
85c0
85c0
6dc0
39c0
01c0
01c0
01c0
01c0
01c0
01c0
01c0
01c0
01c0
01c0
01c0
01c0
01c0
01c0
01c0
01c0
01c0
01e0
0190
0110
0110
0190
0060
ENDCHAR
STARTCHAR adiaeresis
ENCODING 228
SWIDTH 680 0
DWIDTH 17 0
BBX 13 34 2 0
BITMAP
c000
6080
63c0
64e0
64e0
64e0
64e0
64e0
64e0
74e0
38e0
00e0
00e0
00e0
00e0
00e0
00e0
00e0
00e0
00e0
00e0
00e0
00e0
00e0
00e0
00e0
00e0
00e0
00f0
0088
0108
0108
0190
0060
ENDCHAR
STARTCHAR aring
ENCODING 229
SWIDTH 560 0
DWIDTH 14 0
BBX 10 28 1 -8
BITMAP
1e00
3f80
4780
83c0
01c0
01c0
01c0
01c0
01c0
01c0
01c0
01c0
01c0
01c0
01c0
01c0
01c0
01c0
01c0
01c0
01c0
01c0
01c0
01c0
01c0
01c0
01c0
01c0
ENDCHAR
STARTCHAR ae
ENCODING 230
SWIDTH 840 0
DWIDTH 21 0
BBX 15 26 2 -6
BITMAP
0c60
3ef8
639c
411c
c00e
800e
880e
9c0e
8c0e
4c0e
380e
000e
000e
000e
000e
000e
000e
000e
000e
000e
000e
000e
000e
000e
000e
000e
ENDCHAR
STARTCHAR ccedilla
ENCODING 231
SWIDTH 0 0
DWIDTH 0 0
BBX 13 13 -16 23
BITMAP
0038
0038
0038
0038
0070
3fe0
7fc0
8060
80f0
9878
7e38
67f0
21e0
ENDCHAR
STARTCHAR egrave
ENCODING 232
SWIDTH 0 0
DWIDTH 0 0
BBX 4 6 -7 35
BITMAP
f0
60
60
60
60
60
ENDCHAR
STARTCHAR eacute
ENCODING 233
SWIDTH 0 0
DWIDTH 0 0
BBX 9 10 -7 36
BITMAP
0080
7080
8880
8980
d980
3900
1b00
3600
fc00
e000
ENDCHAR
STARTCHAR ecircumflex
ENCODING 234
SWIDTH 0 0
DWIDTH 0 0
BBX 12 9 -11 36
BITMAP
0020
0030
6330
7730
c9b0
80a0
98e0
59c0
3900
ENDCHAR
STARTCHAR ediaeresis
ENCODING 235
SWIDTH 0 0
DWIDTH 0 0
BBX 8 8 -9 36
BITMAP
18
18
18
ff
ff
18
18
18
ENDCHAR
STARTCHAR igrave
ENCODING 236
SWIDTH 0 0
DWIDTH 0 0
BBX 9 10 -5 32
BITMAP
0080
0180
0180
0300
3e00
7c00
cc00
8400
cc00
7800
ENDCHAR
STARTCHAR iacute
ENCODING 237
SWIDTH 0 0
DWIDTH 0 0
BBX 7 8 -10 22
BITMAP
38
7c
ee
c6
c6
ee
7c
38
ENDCHAR
STARTCHAR icircumflex
ENCODING 238
SWIDTH 0 0
DWIDTH 0 0
BBX 8 12 -9 23
BITMAP
0f
1f
38
30
38
3c
60
c0
c0
c4
78
3c
ENDCHAR
STARTCHAR idiaeresis
ENCODING 239
SWIDTH 840 0
DWIDTH 21 0
BBX 17 17 1 0
BITMAP
03e000
0e1c00
300600
600300
41e100
83f080
87f880
87f880
87f880
87f880
c3f080
41e180
600100
300300
180600
0e1c00
03f000
ENDCHAR
STARTCHAR eth
ENCODING 240
SWIDTH 800 0
DWIDTH 20 0
BBX 16 14 1 0
BITMAP
07e0
1ff8
3c3c
780e
700e
e007
e007
e007
e007
700e
780e
3c3c
1ff8
07e0
ENDCHAR
STARTCHAR ntilde
ENCODING 241
SWIDTH 800 0
DWIDTH 20 0
BBX 16 15 1 -1
BITMAP
07e0
1ff8
7c3c
700e
6007
c383
c3c3
c7e3
c7e3
e3e3
60e6
71ce
3f8c
1f18
0010
ENDCHAR
STARTCHAR ograve
ENCODING 242
SWIDTH 1120 0
DWIDTH 28 0
BBX 23 22 2 0
BITMAP
e00000
f00000
700000
700000
700000
700000
700000
700000
703838
70fe7c
71fffc
71c78e
738186
730086
731886
733c86
71bc86
71d98c
70710c
700018
3ffff0
1fffe0
ENDCHAR
STARTCHAR oacute
ENCODING 243
SWIDTH 1000 0
DWIDTH 25 0
BBX 20 14 2 0
BITMAP
07c780
1fefe0
383ce0
701c70
e01830
e01830
c01830
c71830
cf9830
ef9860
6fb860
33b0e0
3f30c0
0e6180
ENDCHAR
STARTCHAR ocircumflex
ENCODING 244
SWIDTH 1000 0
DWIDTH 25 0
BBX 20 22 2 0
BITMAP
000060
0000e0
0000e0
0000c0
0000c0
000180
000700
003c00
01f000
07c000
1e0000
381c00
703f00
706f00
e06f00
e06e00
e07000
e03800
701c00
7c3f80
3ffff0
0f80e0
ENDCHAR
STARTCHAR otilde
ENCODING 245
SWIDTH 1040 0
DWIDTH 26 0
BBX 22 22 1 0
BITMAP
00000c
00001c
00381c
007c1c
00c618
00c638
00e6f0
007fc0
007e00
01e000
0f8380
1e07e0
780fe0
700de0
e00de0
e00cc0
e00600
e00700
700380
7c0fe0
3ffff8
0f8030
ENDCHAR
STARTCHAR odiaeresis
ENCODING 246
SWIDTH 840 0
DWIDTH 21 0
BBX 16 22 2 0
BITMAP
c000
e000
7000
3000
3800
1800
1800
1800
1bc0
3ff0
3c1c
200e
000e
0407
1e07
3e07
3e07
380e
180e
0e1c
07f8
03e0
ENDCHAR
STARTCHAR division
ENCODING 247
SWIDTH 1040 0
DWIDTH 26 0
BBX 21 22 2 0
BITMAP
000200
000380
0003c0
0003e0
0000e0
000070
000030
000038
0e0e38
3f9e18
7fbf18
71e318
e04398
c04198
c001b0
c001b0
c381a0
c7c160
67c340
77c380
3f8700
0f0200
ENDCHAR
STARTCHAR oslash
ENCODING 248
SWIDTH 1000 0
DWIDTH 25 0
BBX 20 22 2 0
BITMAP
000040
000060
000070
000070
000070
000070
000070
000060
0000e0
0f80e0
1ff1c0
3fffc0
781f00
e00000
c00000
c00300
c70780
cf87c0
6fc3c0
7ce1c0
383f80
0c0f00
ENDCHAR
STARTCHAR ugrave
ENCODING 249
SWIDTH 800 0
DWIDTH 20 0
BBX 15 23 2 0
BITMAP
0006
0006
0006
0004
1f0c
3ffc
7878
7000
6000
3808
1ff8
1ff8
7800
6070
c0f0
c0f8
c0f8
c078
6018
6030
3870
1fe0
0780
ENDCHAR
STARTCHAR uacute
ENCODING 250
SWIDTH 920 0
DWIDTH 23 0
BBX 20 20 1 0
BITMAP
003e70
007e70
006e70
006e70
3c6e70
7c4e70
e4ce70
c08e70
c18e70
e30e70
7e0e70
3c0e70
000e70
000e70
000e70
000e70
000e70
000e70
000e70
000e70
ENDCHAR
STARTCHAR ucircumflex
ENCODING 251
SWIDTH 1600 0
DWIDTH 40 0
BBX 36 18 2 0
BITMAP
07e0000000
1ff8000000
3c38000000
7008000000
6000000000
6000000000
e000000000
c000000000
c001042010
c0018c3030
c0038e7830
c003dbd870
600673cce0
60062187c0
700c000380
383c000000
1ff8000000
07e0000000
ENDCHAR
STARTCHAR udiaeresis
ENCODING 252
SWIDTH 0 0
DWIDTH 0 0
BBX 6 9 -9 -20
BITMAP
78
98
8c
8c
9c
7c
1c
1c
1c
ENDCHAR
STARTCHAR yacute
ENCODING 253
SWIDTH 0 0
DWIDTH 0 0
BBX 10 8 -13 -19
BITMAP
71c0
89c0
89c0
89c0
79c0
09c0
0fc0
0700
ENDCHAR
STARTCHAR thorn
ENCODING 254
SWIDTH 0 0
DWIDTH 0 0
BBX 4 4 -7 -17
BITMAP
60
f0
f0
60
ENDCHAR
ENDFONT
